<svg xmlns="http://www.w3.org/2000/svg" viewBox="0 0 325.41 82.62"><g id="Layer_2" data-name="Layer 2"><g id="Layer_1-2" data-name="Layer 1"><rect x="0.5" y="0.5" width="324.41" height="81.62" rx="18.26" style="fill:#fff;stroke:#000;stroke-miterlimit:10"/><path d="M131.13,28.21h3.1l9.11,25.42h-3.05l-2-5.94h-11l-2.09,5.94H122Zm1.53,3.34L128,45.2h9.36Z" style="fill:#1a1a1a"/><path d="M147.08,35.4h2.13l.36,2a7.69,7.69,0,0,1,5.94-2.45,7.46,7.46,0,0,1,6.23,3,10.07,10.07,0,0,1,1.92,6.26c0,3.3-.93,5.87-2.81,7.72a7.59,7.59,0,0,1-5.54,2.24A7.19,7.19,0,0,1,149.77,52v9h-2.69Zm2.69,4.94V49a4.19,4.19,0,0,0,1.91,2.09,5.74,5.74,0,0,0,2.95.85,5.52,5.52,0,0,0,4.45-2,8,8,0,0,0,1.69-5.34,8.16,8.16,0,0,0-1.85-5.75,5.14,5.14,0,0,0-4-1.68,5.73,5.73,0,0,0-3,.92A5.18,5.18,0,0,0,149.77,40.34Z" style="fill:#1a1a1a"/><path d="M168.72,35.4h2.13l.36,2a7.7,7.7,0,0,1,5.95-2.45,7.44,7.44,0,0,1,6.22,3,10,10,0,0,1,1.93,6.26,10.37,10.37,0,0,1-2.81,7.72A7.63,7.63,0,0,1,177,54.11,7.2,7.2,0,0,1,171.41,52v9h-2.69Zm2.69,4.94V49a4.24,4.24,0,0,0,1.91,2.09,5.74,5.74,0,0,0,3,.85,5.53,5.53,0,0,0,4.46-2,8.06,8.06,0,0,0,1.69-5.34,8.21,8.21,0,0,0-1.85-5.75,5.18,5.18,0,0,0-4-1.68,5.76,5.76,0,0,0-3.05.92A5.18,5.18,0,0,0,171.41,40.34Z" style="fill:#1a1a1a"/><path d="M198.92,51.54l1.29-1.8a12.28,12.28,0,0,0,6.22,1.68,6.11,6.11,0,0,0,4-1.18,4.1,4.1,0,0,0,1.44-3.35c0-2.47-1.62-4.26-4.86-5.39a16.64,16.64,0,0,1-6-3.13,5.54,5.54,0,0,1-1.85-4.21,5.74,5.74,0,0,1,2.33-4.78,8.86,8.86,0,0,1,5.58-1.65,12,12,0,0,1,6.87,2.09l-1.33,1.81a11.13,11.13,0,0,0-5.34-1.33,6.16,6.16,0,0,0-3.69,1A3.22,3.22,0,0,0,202.21,34c0,1.79,1.4,3.21,4.18,4.25A19.64,19.64,0,0,1,213,42a6.7,6.7,0,0,1,1.9,5,6.47,6.47,0,0,1-2.69,5.5,8.71,8.71,0,0,1-5.38,1.64A14.49,14.49,0,0,1,198.92,51.54Z" style="fill:#1a1a1a"/><path d="M224.34,37.61l0,11.4q0,2.94,2.37,2.94a5.48,5.48,0,0,0,2.61-.69l1,1.49a7.13,7.13,0,0,1-4.13,1.36,4.18,4.18,0,0,1-3.3-1.32,5.45,5.45,0,0,1-1.16-3.7V37.61h-2.77V35.4h2.81v-4l2.65-1.37V35.4h5.58v2.21Z" style="fill:#1a1a1a"/><path d="M251,44.56a9.71,9.71,0,0,1-2.73,7.11,8.22,8.22,0,0,1-6,2.44A8.12,8.12,0,0,1,235.59,51a9.92,9.92,0,0,1-2.13-6.42,9.81,9.81,0,0,1,2.65-7.15,8.75,8.75,0,0,1,12.85.68A10.3,10.3,0,0,1,251,44.56Zm-14.66,0a8.05,8.05,0,0,0,1.81,5.54,5.48,5.48,0,0,0,8.33-.22,8.27,8.27,0,0,0,1.62-5.32A8.27,8.27,0,0,0,246.35,39a5.09,5.09,0,0,0-4.1-1.93A5.19,5.19,0,0,0,238,39.16,8.47,8.47,0,0,0,236.35,44.56Z" style="fill:#1a1a1a"/><path d="M268,37l-2.21,1.52a4.35,4.35,0,0,0-2.93-1.2,5,5,0,0,0-4.05,2.37v14h-2.69V35.4h2.28l.25,1.93h.08a6.85,6.85,0,0,1,4.86-2.41A5.09,5.09,0,0,1,268,37Z" style="fill:#1a1a1a"/><path d="M285.62,45.44h-13a6.5,6.5,0,0,0,6.87,6.47,9.05,9.05,0,0,0,4.86-1.49l.92,1.61a10,10,0,0,1-6.38,2.08A8.83,8.83,0,0,1,272,51.26a9.43,9.43,0,0,1-2.37-6.66,10.3,10.3,0,0,1,2.53-7.11,7.29,7.29,0,0,1,5.66-2.57A6.93,6.93,0,0,1,284,38.21a11.62,11.62,0,0,1,1.64,6.35Zm-13.05-2.17h10.28a7.75,7.75,0,0,0-1.42-4.58,4.36,4.36,0,0,0-3.6-1.64,4.57,4.57,0,0,0-3.63,1.72A7.43,7.43,0,0,0,272.57,43.27Z" style="fill:#1a1a1a"/><path d="M86.27,65.27c-3,2.9-6.3,2.45-9.45,1.08a12,12,0,0,0-9.94,0c-4.4,1.9-6.74,1.35-9.39-1.08-15-15.41-12.76-38.89,4.25-39.77,4.13.22,7,2.28,9.45,2.45,3.61-.74,7.07-2.84,10.94-2.56q7,.55,10.44,5.5a12.15,12.15,0,0,0,1.48,21.88c-1.75,4.61-4,9.17-7.79,12.54ZM70.86,25.33c-.45-6.85,5.1-12.48,11.49-13C83.23,20.19,75.17,26.1,70.86,25.33Z"/></g></g></svg>