<svg xmlns="http://www.w3.org/2000/svg" viewBox="0 0 20.11 20.11"><g id="Layer_2" data-name="Layer 2"><g id="Layer_1-2" data-name="Layer 1"><path d="M17.43,1.57h-.29a.32.32,0,0,1-.33-.32V.33A.32.32,0,0,0,16.49,0h-.92a.33.33,0,0,0-.33.33v.92a.32.32,0,0,1-.32.32H5.2a.32.32,0,0,1-.33-.32V.33A.32.32,0,0,0,4.55,0H3.63A.33.33,0,0,0,3.3.33v.92A.32.32,0,0,1,3,1.57H2.68A2.68,2.68,0,0,0,0,4.25V17.43a2.68,2.68,0,0,0,2.68,2.68H17.43a2.68,2.68,0,0,0,2.68-2.68V4.25A2.68,2.68,0,0,0,17.43,1.57Zm1.11,15.86a1.1,1.1,0,0,1-1.11,1.11H2.68a1.11,1.11,0,0,1-1.11-1.11V7.71a.32.32,0,0,1,.33-.32H18.22a.32.32,0,0,1,.32.32ZM18.22,5.81H1.9a.32.32,0,0,1-.33-.32V4.25A1.11,1.11,0,0,1,2.68,3.14H3a.33.33,0,0,1,.33.33v.92a.32.32,0,0,0,.33.32h.92a.32.32,0,0,0,.32-.32V3.47a.33.33,0,0,1,.33-.33h9.72a.32.32,0,0,1,.32.33v.92a.32.32,0,0,0,.33.32h.92a.32.32,0,0,0,.32-.32V3.47a.33.33,0,0,1,.33-.33h.29a1.11,1.11,0,0,1,1.11,1.11V5.49A.32.32,0,0,1,18.22,5.81Z" style="fill:#00a7e8"/><rect x="15.56" y="9.04" width="1.57" height="1.57" rx="0.22" style="fill:#00a7e8"/><rect x="12.41" y="9.04" width="1.57" height="1.57" rx="0.22" style="fill:#00a7e8"/><rect x="9.27" y="9.04" width="1.57" height="1.57" rx="0.22" style="fill:#00a7e8"/><rect x="6.13" y="9.04" width="1.57" height="1.57" rx="0.22" style="fill:#00a7e8"/><rect x="2.99" y="9.04" width="1.57" height="1.57" rx="0.22" style="fill:#00a7e8"/><rect x="15.56" y="12.26" width="1.57" height="1.57" rx="0.22" style="fill:#00a7e8"/><rect x="12.41" y="12.26" width="1.57" height="1.57" rx="0.22" style="fill:#00a7e8"/><rect x="9.27" y="12.26" width="1.57" height="1.57" rx="0.22" style="fill:#00a7e8"/><rect x="6.13" y="12.26" width="1.57" height="1.57" rx="0.22" style="fill:#00a7e8"/><rect x="2.99" y="12.26" width="1.57" height="1.57" rx="0.22" style="fill:#00a7e8"/><rect x="9.27" y="15.48" width="1.57" height="1.57" rx="0.22" style="fill:#00a7e8"/><rect x="6.13" y="15.48" width="1.57" height="1.57" rx="0.22" style="fill:#00a7e8"/><rect x="2.99" y="15.48" width="1.57" height="1.57" rx="0.22" style="fill:#00a7e8"/></g></g></svg>