<svg xmlns="http://www.w3.org/2000/svg" viewBox="0 0 29.69 29.69"><g id="Layer_2" data-name="Layer 2"><g id="Layer_1-2" data-name="Layer 1"><path d="M15.78,14.25c-.17,1.06-.47,2.17-1.78,2.25-1,0-.85-.85-.81-1.48.09-1,.34-2,1.53-2.21C15.44,13,15.91,13.4,15.78,14.25Z" style="fill:#00a7e8"/><path d="M14.85,0A14.85,14.85,0,1,0,29.69,14.85,14.86,14.86,0,0,0,14.85,0Zm6.32,15.53a3.32,3.32,0,0,1-1.74,2.2c-2.33.81-4.75.13-7,0-1.74-.08-1.19-2.59-.81-4,.47-1.65,1.53-2.8,3.48-2.42.59.09.93.77,1.78.22,1-.64,1.32.08,1.06,1.06-.17.72-.3,1.44-.42,2.2s-.47,1.49.42,1.7,1.32-.64,1.49-1.36c.29-1.65.76-3.43-1-4.71-1.57-1.14-5-.85-6.53.55S9.33,16,10.27,18,13,20,14.85,20c.93,0,2.5-1,2.63.34s-1.61,1.06-2.63,1.23a3.86,3.86,0,0,1-.68,0c-4,0-5.94-1.57-6.07-5C7.89,12,10.56,8.53,14.64,8.1,20,7.55,22.86,10.82,21.17,15.53Z" style="fill:#00a7e8"/></g></g></svg>