<svg xmlns="http://www.w3.org/2000/svg" viewBox="0 0 30.85 30.99"><g id="Layer_2" data-name="Layer 2"><g id="Layer_1-2" data-name="Layer 1"><path d="M0,15.35A15.41,15.41,0,0,1,15.72,0C24.24,0,31,7.13,30.85,16A15.57,15.57,0,0,1,15.31,31,15.54,15.54,0,0,1,0,15.35ZM18.61,3.22C13.48,3.24,12,4.6,12,9.56c0,1.2-.34,1.61-1.54,1.65-2,0-1.11,1.65-1.25,2.65s-.08,1.93,1.36,1.77c1-.11,1.39.26,1.36,1.35-.06,2.33,0,4.66.07,7,.11,4.09-.89,3.67,3.88,3.73,1.34,0,1.88-.44,1.85-1.81,0-2.82,0-5.64,0-8.46,0-1.32.35-1.95,1.77-1.8,2.73.27,1.7-2,2-3.19.39-1.75-1.07-1.22-1.92-1.29-1.76-.14-2.16-.62-1.79-2.27.27-1.18,1.18-1,2-1.11.62-.07,1.4.31,1.79-.55.95-2.07-.22-4-2.41-4Z" style="fill:#00a7e8"/></g></g></svg>