<svg xmlns="http://www.w3.org/2000/svg" viewBox="0 0 22.78 30.81"><g id="Layer_2" data-name="Layer 2"><g id="Layer_1-2" data-name="Layer 1"><path d="M11.39,4.67a6.72,6.72,0,1,0,6.72,6.72A6.73,6.73,0,0,0,11.39,4.67Zm0,11.63a4.91,4.91,0,1,1,4.91-4.91A4.9,4.9,0,0,1,11.39,16.3Z" style="fill:#00a7e8"/><path d="M11.39,0A11.4,11.4,0,0,0,0,11.39c0,3.63,3,9,4.85,11.91a50.26,50.26,0,0,0,3.6,5.11c1.82,2.22,2.48,2.4,2.94,2.4s1.09-.18,2.9-2.4A53.84,53.84,0,0,0,17.9,23.3c1.83-2.9,4.88-8.31,4.88-11.91A11.4,11.4,0,0,0,11.39,0Zm5.26,21.9a36.37,36.37,0,0,1-5.27,7,34.33,34.33,0,0,1-5.27-7c-2.73-4.45-4.3-8.3-4.3-10.52a9.59,9.59,0,0,1,19.17,0C21,13.6,19.4,17.44,16.65,21.9Z" style="fill:#00a7e8"/><path d="M11.39,1.81a9.59,9.59,0,0,0-9.58,9.58c0,2.22,1.57,6.07,4.3,10.52a34.33,34.33,0,0,0,5.27,7,36.37,36.37,0,0,0,5.27-7C19.4,17.44,21,13.6,21,11.39A9.6,9.6,0,0,0,11.39,1.81Zm0,16.3a6.72,6.72,0,1,1,6.72-6.72A6.73,6.73,0,0,1,11.39,18.11Z" style="fill:#00a7e8"/></g></g></svg>