<svg xmlns="http://www.w3.org/2000/svg" viewBox="0 0 222.47 222.47"><g id="Layer_2" data-name="Layer 2"><g id="Layer_1-2" data-name="Layer 1"><circle cx="111.23" cy="111.23" r="111.23" style="fill:#f2f8ff"/><path d="M142,91.06c-6.22-.84-12.9,7.5-14.11,15.34-1.15,7.44,2.15,17.44,8.56,18.66,6.26,1.2,13-6.45,14.68-13.64C153.13,102.86,148.57,92,142,91.06Zm-3.33,22.1c-2.56-.26-5.42-2.22-5.68-5.08-.29-3.25,2.94-6.08,6.21-6.25s6.8,2.46,6.82,5.64C146.06,110.89,142.13,113.51,138.69,113.16Z" style="stroke:#fff;stroke-miterlimit:10"/><path d="M34.3,143.82s10.17-5.7,17-1.19,30.11,26.52,39.19,31c0,0,15.35,9.28,28.92,10.66,10.77,1.1,28.9,2.17,46.41-10.92,19.42-14.51,21.42-31.22,21.42-31.22s-19.23,9.69-30,8.6c-10.21-1-13.63-10.72-13.63-10.72s-5.06,11.91-13,10.24c-9.57-2-10.29-27.15-10.31-32.82s2.21-16.43,2.2-18.7c0-1.64-2.7-3.88-4.18-5a1.15,1.15,0,0,1-.23-1.61L121.94,87a1.06,1.06,0,0,0-.06-1.34L118,81.4a1.08,1.08,0,0,1,0-1.46l5.28-5.7a1.14,1.14,0,0,1,1.69-.06l5.58,5.71a1.05,1.05,0,0,1,.1,1.57l-4.58,4.61a1.12,1.12,0,0,0,0,1.59l3.73,3.7a1,1,0,0,1,.08,1.25l-5.13,6.72s-.5,19.26.65,24.92,2.31,13,7.41,14.14c4.2.91,9.52-5.45,11.27-7.74a.84.84,0,0,1,1.27-.06c2.38,2.59,10.69,11,16.92,10.53,5.88-.47,17.14-4.57,21.46-6.2a.78.78,0,0,0,0-1.44c-4.41-2-16.08-7-19.28-6.53-2.26.33-4.7,2.14-6.38,3.63a.45.45,0,0,1-.69-.56,93.37,93.37,0,0,1,5.92-9.86c2.25-2.84,5.07-6.25,4.49-10.21s-5.69-8.48-5.69-8.48L142.28,84a65.64,65.64,0,0,1-12.51-13c-5.69-7.91-5.73-19.24-5.18-23.78s7.32-13.61,7.32-13.61-1.24,6,.6,9.62a30.51,30.51,0,0,0,10.24,12.43c5,3.59,18.74,14.1,28.39,22.56S187.07,98,189.92,104.78s4.6,19.81,4.6,19.81a4.75,4.75,0,0,1-5.1-1.12c-1.7-1.69-1.72-5.09-1.72-5.09s-4.22-11.8-10.26-19.79c-6.82-9-37-32.6-40.33-35.55C131.42,58,130.4,52.69,129,50.25a.17.17,0,0,0-.32.11c.39,2.66,3,10.65,6.74,14.39C140,69.26,157.57,84.5,162.12,89s11.78,12.89,11.39,18.65a17.19,17.19,0,0,1-5.62,11.92s8.22.4,13,2.79c4.54,2.25,13.05,5.62,18.15,5.6l11.89,0s1.15,4.53-3.94,7.37-11.74,3.93-14,4.42a1.29,1.29,0,0,0-.95.91c-.74,2.65-3.54,11.81-8.8,18.54-6.2,8-15.22,19.88-35.59,26.74s-45.31-.41-45.31-.41-22.69-7.85-36.32-20.27c-14.22-12.94-22.72-19.18-25-20.3S34.3,143.82,34.3,143.82Z" style="stroke:#fff;stroke-miterlimit:10"/><path d="M13.33,141.62a70.44,70.44,0,0,1,4.5-8.51l4.51-6.81a52.5,52.5,0,0,0,6.82,5.64c3.4,2.25,7.38,5.07,7.38,5.07A42.54,42.54,0,0,0,32,128.53a41,41,0,0,0-6.25-6.77s5.65-4,7.91-4.56,8.48-4,8.48-4a2.08,2.08,0,0,0-1.7-1.12,24.88,24.88,0,0,0-5.66,1.15c-1.07.36-2.26.57-2.27,0s-.57-1.7-1.7-1.13,0,2.27-1.69,2.27-2.27-1.69-3.4-1.12-.56,2.83-2.82,2.84a7.8,7.8,0,0,1-4-1.12L15.5,111.6a2.69,2.69,0,0,0-3.4.57,2,2,0,0,0-.56,2.27l4.55,5.65a2.75,2.75,0,0,1,0,2.27,6.93,6.93,0,0,1-1.13,1.7h-.56a1.11,1.11,0,0,0-1.13,1.14c0,.8,1.14,1.69,1.14,1.69s.56.57,0,1.7-1.7.57-2.26,1.71.58,2.26.58,4a45.52,45.52,0,0,1-.55,4.53c0,.57-.39,2.44,0,2.84A.78.78,0,0,0,13.33,141.62Z" style="fill:#00a7e8;stroke:#fff;stroke-miterlimit:10"/><path d="M125.57,168.43a10.91,10.91,0,0,1,1.11-6.8,10.14,10.14,0,0,1,1.69-2.27l12.46-1.74a1.63,1.63,0,0,1,.56,0,2.33,2.33,0,0,1,1.14.56c1,.88.57,4.23-.55,6.8a4.8,4.8,0,0,1-1.12,1.7,4.89,4.89,0,0,1-2.27,1.14c-3.54.9-6,1.5-9.62,1.17A26.06,26.06,0,0,1,125.57,168.43Z" style="stroke:#fff;stroke-miterlimit:10"/><path d="M21,94.87c.24,0,.36.09.36.28v.59a.32.32,0,0,1-.36.37h-.29a4.71,4.71,0,0,1-.53,0,1.84,1.84,0,0,1-.51-.14,1.48,1.48,0,0,1-.46-.34,1.6,1.6,0,0,1-.33-.59v1.16a4.2,4.2,0,0,1-.18,1.25,2.93,2.93,0,0,1-.54,1,2.34,2.34,0,0,1-.87.68,2.67,2.67,0,0,1-1.19.25q-.36,0-.66,0L15,99.28l.14-1.23.36.06a1.65,1.65,0,0,0,.32,0h.31a1.31,1.31,0,0,0,1.22-.53,3.17,3.17,0,0,0,.32-1.6V90.22h1.24V93a3.4,3.4,0,0,0,.08.73,1.46,1.46,0,0,0,.3.58,1.31,1.31,0,0,0,.55.39,2.32,2.32,0,0,0,.85.14Z"/><path d="M20.81,96.11q-.36,0-.36-.27v-.6a.32.32,0,0,1,.36-.37h2.55a2.64,2.64,0,0,1-.57-.83,2.8,2.8,0,0,1-.24-1.18,3.12,3.12,0,0,1,.24-1.19,3.22,3.22,0,0,1,.68-1,3.46,3.46,0,0,1,1.05-.73,3.42,3.42,0,0,1,1.37-.28,2.87,2.87,0,0,1,1.12.21,2.49,2.49,0,0,1,.86.59,2.66,2.66,0,0,1,.53.91,3.46,3.46,0,0,1,.19,1.19v2.36H30c.24,0,.36.09.36.28v.59a.32.32,0,0,1-.36.37Zm6.54-1.24V92.43a1.63,1.63,0,0,0-.1-.57,1.34,1.34,0,0,0-.29-.52,1.4,1.4,0,0,0-.52-.39,1.88,1.88,0,0,0-.74-.14A1.78,1.78,0,0,0,25,91a1.87,1.87,0,0,0-.61.41A1.92,1.92,0,0,0,24,92a2.21,2.21,0,0,0-.15.84A2,2,0,0,0,24.07,94a2,2,0,0,0,.62.6,2.38,2.38,0,0,0,.91.3Zm-2.27-7.62a.72.72,0,1,1,.21.51A.69.69,0,0,1,25.08,87.25Z"/><path d="M30.06,96.11c-.24,0-.35-.09-.35-.27v-.6c0-.25.11-.37.35-.37h2.56a.81.81,0,0,0,.75-.32,1.75,1.75,0,0,0,.18-.86V91.77h1.24V93a2.76,2.76,0,0,0,.09.71,1.36,1.36,0,0,0,.84,1,2.12,2.12,0,0,0,.85.15h.29a.79.79,0,0,0,.75-.32,1.75,1.75,0,0,0,.18-.86V91.12H39V93a3.24,3.24,0,0,0,.08.72,1.46,1.46,0,0,0,.3.58,1.34,1.34,0,0,0,.54.39,2.29,2.29,0,0,0,.85.14h.39a.83.83,0,0,0,.78-.32,1.75,1.75,0,0,0,.18-.86V90.22h1.21V93a3.4,3.4,0,0,0,.08.73,1.46,1.46,0,0,0,.3.58,1.34,1.34,0,0,0,.54.39,2.25,2.25,0,0,0,.85.14h.35c.24,0,.36.09.36.28v.59a.32.32,0,0,1-.36.37h-.4a2.48,2.48,0,0,1-1.16-.25,1.48,1.48,0,0,1-.72-.94,2.32,2.32,0,0,1-.38.65,1.41,1.41,0,0,1-.46.36,1.49,1.49,0,0,1-.52.15,5.12,5.12,0,0,1-.56,0h-.53a2.45,2.45,0,0,1-1.15-.24,1.71,1.71,0,0,1-.73-1,1.85,1.85,0,0,1-.84,1,2.36,2.36,0,0,1-1.07.23h-.44a2.4,2.4,0,0,1-1.16-.25,1.59,1.59,0,0,1-.72-.94,2.63,2.63,0,0,1-.39.63,1.44,1.44,0,0,1-.47.36,1.74,1.74,0,0,1-.55.16,4.21,4.21,0,0,1-.62,0Z"/><path d="M45.27,96.11q-.36,0-.36-.27v-.6a.32.32,0,0,1,.36-.37h2V85h1.24V96.11Z"/><path d="M51,85h1.2V96.11H51Z"/><path d="M57.78,96.11a4.15,4.15,0,0,1-1.55-.26,3.08,3.08,0,0,1-1-.68,2.5,2.5,0,0,1-.58-1,3.35,3.35,0,0,1-.18-1.08,3.84,3.84,0,0,1,.24-1.35,3.41,3.41,0,0,1,.65-1.13,3.2,3.2,0,0,1,1-.76,2.82,2.82,0,0,1,1.27-.28,3,3,0,0,1,1.18.22,2.68,2.68,0,0,1,.9.6,2.64,2.64,0,0,1,.57.94,3.59,3.59,0,0,1,.19,1.2v3.62a3.89,3.89,0,0,1-.29,1.61,2.72,2.72,0,0,1-.81,1.09,3.4,3.4,0,0,1-1.25.61,6,6,0,0,1-1.57.2l-.65,0a6.5,6.5,0,0,1-.73-.08l.12-1.18.69.06.64,0a5.24,5.24,0,0,0,1-.09,2,2,0,0,0,.84-.36,1.77,1.77,0,0,0,.58-.73,2.92,2.92,0,0,0,.24-1.21Zm1.43-1.25V93.07a2.67,2.67,0,0,0-.46-1.67,1.5,1.5,0,0,0-1.26-.59,1.64,1.64,0,0,0-.69.14,1.83,1.83,0,0,0-.6.41,2.22,2.22,0,0,0-.42.64,2.24,2.24,0,0,0-.15.84,2.21,2.21,0,0,0,.17.93,1.66,1.66,0,0,0,.46.63,2.09,2.09,0,0,0,.68.35,3,3,0,0,0,.8.11Z"/><path d="M72.82,94.87c.23,0,.35.09.35.28v.59c0,.25-.12.37-.35.37H68.9a4.24,4.24,0,0,1-1.56-.26,3.08,3.08,0,0,1-1-.68,2.5,2.5,0,0,1-.58-1,3.35,3.35,0,0,1-.18-1.08,3.84,3.84,0,0,1,.24-1.35,3.62,3.62,0,0,1,.66-1.13,3.16,3.16,0,0,1,1-.76,2.8,2.8,0,0,1,1.26-.28,3,3,0,0,1,1.19.22,2.44,2.44,0,0,1,.89.61,2.85,2.85,0,0,1,.57.94,3.6,3.6,0,0,1,.2,1.2v2.29Zm-2.5,0V93.08a2.79,2.79,0,0,0-.44-1.67,1.5,1.5,0,0,0-1.28-.6,1.64,1.64,0,0,0-.69.14,1.91,1.91,0,0,0-.59.41,2.06,2.06,0,0,0-.41.65,2,2,0,0,0-.16.84,2.38,2.38,0,0,0,.17.93,1.68,1.68,0,0,0,.47.63,1.83,1.83,0,0,0,.66.35,3,3,0,0,0,.8.11Zm-3.4-7.62a.72.72,0,1,1,.21.51A.69.69,0,0,1,66.92,87.25Zm2.07,0a.68.68,0,0,1,.2-.5.69.69,0,0,1,.51-.21.67.67,0,0,1,.5.21.71.71,0,0,1,0,1,.67.67,0,0,1-.5.21.69.69,0,0,1-.51-.21A.69.69,0,0,1,69,87.25Z"/><path d="M78.06,94.87a3.38,3.38,0,0,1-.68-1.09,4.73,4.73,0,0,1-.31-1.12c-.16-1.2-.72-1.81-1.69-1.81a3.78,3.78,0,0,0-.75.09,4.84,4.84,0,0,0-.87.27,5.92,5.92,0,0,0-.16-.61,5.71,5.71,0,0,1-.16-.57l1-.29a4.93,4.93,0,0,1,1.25-.16,2.79,2.79,0,0,1,1.09.2,2.12,2.12,0,0,1,.77.57,2.63,2.63,0,0,1,.49.87,4.53,4.53,0,0,1,.24,1.11c0,.22.07.45.1.68a3.9,3.9,0,0,0,.18.67,2.51,2.51,0,0,0,.31.61,1.9,1.9,0,0,0,.55.5v1.32H72.58c-.23,0-.35-.09-.35-.27v-.6c0-.25.12-.37.35-.37Z"/><path d="M81.47,85h1.24v9.88h1.21c.24,0,.36.09.36.28v.59a.32.32,0,0,1-.36.37H81.47Z"/><path d="M83.69,96.11q-.36,0-.36-.27v-.6a.32.32,0,0,1,.36-.37H85a.81.81,0,0,0,.75-.32,1.64,1.64,0,0,0,.19-.86V90.22h1.24V93a2.86,2.86,0,0,0,.09.73,1.33,1.33,0,0,0,.29.58,1.38,1.38,0,0,0,.55.39,2.3,2.3,0,0,0,.84.14h.34c.24,0,.36.09.36.28v.59a.32.32,0,0,1-.36.37h-.38a2.47,2.47,0,0,1-1.2-.27,1.46,1.46,0,0,1-.68-.92,3.17,3.17,0,0,1-.38.62,1.49,1.49,0,0,1-.45.36,1.87,1.87,0,0,1-.52.17,3.73,3.73,0,0,1-.59,0Zm1.2,2.5a.72.72,0,1,1,.21.5A.67.67,0,0,1,84.89,98.61Zm2.06,0a.67.67,0,0,1,.21-.5.71.71,0,0,1,1,0,.7.7,0,0,1,0,1,.71.71,0,0,1-1,0A.67.67,0,0,1,87,98.61Z"/><path d="M89.09,96.11q-.36,0-.36-.27v-.6a.32.32,0,0,1,.36-.37h2.56a.79.79,0,0,0,.74-.32,1.64,1.64,0,0,0,.19-.86V91.77h1.24V93a2.76,2.76,0,0,0,.09.71,1.38,1.38,0,0,0,.29.58,1.52,1.52,0,0,0,.55.39,2.09,2.09,0,0,0,.85.15h.29a.79.79,0,0,0,.75-.32,1.75,1.75,0,0,0,.18-.86V91.12h1.24V93a3.24,3.24,0,0,0,.08.72,1.46,1.46,0,0,0,.3.58,1.34,1.34,0,0,0,.54.39,2.25,2.25,0,0,0,.85.14h.38c.41,0,.67-.11.79-.32a1.75,1.75,0,0,0,.18-.86V90.22h1.21V93a2.87,2.87,0,0,0,.08.73,1.46,1.46,0,0,0,.3.58,1.28,1.28,0,0,0,.54.39,2.23,2.23,0,0,0,.84.14h.36c.24,0,.36.09.36.28v.59a.32.32,0,0,1-.36.37h-.4a2.52,2.52,0,0,1-1.17-.25,1.47,1.47,0,0,1-.71-.94,2.32,2.32,0,0,1-.38.65,1.41,1.41,0,0,1-.46.36,1.56,1.56,0,0,1-.52.15,5.12,5.12,0,0,1-.56,0h-.53a2.49,2.49,0,0,1-1.16-.24,1.75,1.75,0,0,1-.72-1,1.94,1.94,0,0,1-.84,1,2.41,2.41,0,0,1-1.08.23h-.43a2.47,2.47,0,0,1-1.17-.25,1.67,1.67,0,0,1-.72-.94,2.34,2.34,0,0,1-.38.63,1.44,1.44,0,0,1-.47.36,1.73,1.73,0,0,1-.56.16,4,4,0,0,1-.62,0Z"/><path d="M104.29,96.11c-.23,0-.35-.09-.35-.27v-.6c0-.25.12-.37.35-.37h1.34a.81.81,0,0,0,.75-.32,1.64,1.64,0,0,0,.19-.86V85h1.24V93a2.73,2.73,0,0,0,.09.72,1.58,1.58,0,0,0,.29.58,1.35,1.35,0,0,0,.56.39,2.21,2.21,0,0,0,.83.14h.34c.24,0,.36.09.36.28v.59a.32.32,0,0,1-.36.37h-.38a2.47,2.47,0,0,1-1.2-.27,1.46,1.46,0,0,1-.68-.92,2.75,2.75,0,0,1-.38.62,1.38,1.38,0,0,1-.45.36,1.77,1.77,0,0,1-.52.17,3.73,3.73,0,0,1-.59,0Z"/><path d="M109.69,96.11q-.36,0-.36-.27v-.6a.32.32,0,0,1,.36-.37h2V85h1.24V96.11Z"/></g></g></svg>