<svg xmlns="http://www.w3.org/2000/svg" viewBox="0 0 188.97 188.97"><g id="Layer_2" data-name="Layer 2"><g id="Layer_1-2" data-name="Layer 1"><circle cx="94.48" cy="94.48" r="94.48" style="fill:#fff;opacity:0.4"/><path d="M120.63,77.35c-5.28-.72-10.95,6.37-12,13-1,6.32,1.82,14.81,7.27,15.85s11.06-5.48,12.47-11.59C130.07,87.37,126.2,78.11,120.63,77.35Zm-2.82,18.77c-2.18-.22-4.61-1.89-4.83-4.31-.25-2.76,2.5-5.17,5.28-5.31s5.77,2.09,5.79,4.79C124.07,94.19,120.73,96.42,117.81,96.12Z"/><path d="M29.13,122.16s8.65-4.84,14.43-1,25.58,22.53,33.29,26.35c0,0,13,7.88,24.57,9.06,9.14.93,24.54,1.84,39.42-9.28C157.33,135,159,120.76,159,120.76s-16.33,8.24-25.48,7.3C124.89,127.18,122,119,122,119s-4.3,10.12-11,8.7c-8.13-1.71-8.74-23.06-8.75-27.88s1.87-14,1.87-15.88c0-1.4-2.3-3.3-3.55-4.23a1,1,0,0,1-.2-1.37l3.27-4.39a.9.9,0,0,0,0-1.14l-3.29-3.63a.91.91,0,0,1,0-1.24l4.49-4.84a1,1,0,0,1,1.43-.05l4.74,4.85A.9.9,0,0,1,111,69.2l-3.89,3.91a1,1,0,0,0,0,1.35l3.17,3.15a.8.8,0,0,1,.07,1.06L106,84.38s-.42,16.35.56,21.16,2,11.06,6.29,12c3.56.78,8.08-4.63,9.58-6.57a.7.7,0,0,1,1.07,0c2,2.2,9.08,9.37,14.38,8.94,5-.4,14.56-3.88,18.22-5.27a.66.66,0,0,0,0-1.22c-3.75-1.67-13.67-5.94-16.38-5.54-1.92.28-4,1.81-5.42,3.08a.38.38,0,0,1-.59-.47,79.32,79.32,0,0,1,5-8.38c1.91-2.42,4.31-5.31,3.82-8.68s-4.84-7.2-4.84-7.2L120.85,71.34a56.47,56.47,0,0,1-10.62-11c-4.83-6.72-4.86-16.35-4.4-20.2s6.22-11.56,6.22-11.56-1,5.08.51,8.17a26,26,0,0,0,8.69,10.56c4.22,3,15.92,12,24.12,19.16s13.53,16.79,16,22.56,3.9,16.83,3.9,16.83a4,4,0,0,1-4.33-1c-1.45-1.44-1.46-4.33-1.46-4.33s-3.59-10-8.72-16.81c-5.79-7.67-31.45-27.69-34.26-30.19-4.83-4.32-5.7-8.8-6.88-10.87a.15.15,0,0,0-.27.1c.33,2.26,2.52,9,5.72,12.22,3.86,3.83,18.82,16.77,22.68,20.61s10,11,9.67,15.84a14.61,14.61,0,0,1-4.77,10.12s7,.34,11.07,2.37c3.85,1.91,11.08,4.77,15.41,4.76l10.1,0s1,3.84-3.34,6.26-10,3.33-11.86,3.75a1.11,1.11,0,0,0-.81.77c-.62,2.25-3,10-7.47,15.76-5.27,6.75-12.93,16.88-30.23,22.71S87,157.57,87,157.57s-19.27-6.67-30.85-17.22c-12.08-11-19.3-16.29-21.23-17.25S29.13,122.16,29.13,122.16Z"/><path d="M11.32,120.3a58.48,58.48,0,0,1,3.83-7.23L19,107.28a44.89,44.89,0,0,0,5.79,4.79C27.66,114,31,116.38,31,116.38a35.81,35.81,0,0,0-3.88-7.2,34.35,34.35,0,0,0-5.31-5.76s4.8-3.38,6.73-3.87,7.2-3.39,7.2-3.39a1.78,1.78,0,0,0-1.45-1,20.74,20.74,0,0,0-4.8,1c-.92.31-1.93.49-1.93,0s-.48-1.45-1.45-1,0,1.92-1.43,1.93-1.93-1.44-2.89-1-.47,2.4-2.4,2.41a6.63,6.63,0,0,1-3.37-1l-2.9-2.88a2.27,2.27,0,0,0-2.88.49,1.71,1.71,0,0,0-.48,1.93l3.87,4.8a2.34,2.34,0,0,1,0,1.92,5.89,5.89,0,0,1-1,1.45h-.48a.94.94,0,0,0-1,1c0,.69,1,1.45,1,1.45s.49.47,0,1.44-1.44.48-1.92,1.45.49,1.92.49,3.36a38,38,0,0,1-.47,3.85c0,.49-.33,2.07,0,2.41A.66.66,0,0,0,11.32,120.3Z" style="fill:#00a7e8"/><path d="M106.66,143.07a9.37,9.37,0,0,1,.94-5.78,9,9,0,0,1,1.44-1.93l10.58-1.48a2.39,2.39,0,0,1,.48,0,2.15,2.15,0,0,1,1,.48c.84.75.49,3.59-.47,5.78a3.77,3.77,0,0,1-2.87,2.41c-3,.76-5.06,1.28-8.18,1A21,21,0,0,1,106.66,143.07Z"/><path d="M39.24,84c.14,0,.21,0,.21.16v.34a.19.19,0,0,1-.21.21h-.47a1,1,0,0,1-.29-.09.83.83,0,0,1-.27-.19A1,1,0,0,1,38,84v.67a2.46,2.46,0,0,1-.1.72,1.71,1.71,0,0,1-.31.58,1.28,1.28,0,0,1-.5.39,1.51,1.51,0,0,1-.68.14h-.38l-.27,0,.08-.7.2,0,.19,0h.18a.77.77,0,0,0,.7-.3,1.87,1.87,0,0,0,.18-.92V81.27H38v1.62a1.86,1.86,0,0,0,0,.42.84.84,0,0,0,.17.34.83.83,0,0,0,.32.22,1.36,1.36,0,0,0,.49.08Z"/><path d="M39.12,84.66c-.14,0-.21,0-.21-.16v-.34a.19.19,0,0,1,.21-.21h1.46a1.46,1.46,0,0,1-.33-.48,1.6,1.6,0,0,1-.13-.67,1.64,1.64,0,0,1,.14-.69,1.86,1.86,0,0,1,.38-.6,2.07,2.07,0,0,1,.61-.42,1.85,1.85,0,0,1,.78-.16,1.67,1.67,0,0,1,.65.12,1.31,1.31,0,0,1,.49.34,1.5,1.5,0,0,1,.31.52,2.07,2.07,0,0,1,.1.68V84h.8c.13,0,.2,0,.2.16v.34a.18.18,0,0,1-.2.21ZM42.87,84V82.54a1.25,1.25,0,0,0,0-.32.9.9,0,0,0-.17-.3,1,1,0,0,0-.3-.22.94.94,0,0,0-.43-.09,1.15,1.15,0,0,0-.41.08,1.36,1.36,0,0,0-.35.24,1.31,1.31,0,0,0-.24.37,1.3,1.3,0,0,0-.09.49,1.08,1.08,0,0,0,.16.64,1.16,1.16,0,0,0,.35.35,1.57,1.57,0,0,0,.53.17Zm-1.3-4.38a.41.41,0,1,1,.82,0,.38.38,0,0,1-.12.29.41.41,0,0,1-.58,0A.38.38,0,0,1,41.57,79.57Z"/><path d="M44.43,84.66c-.14,0-.2,0-.2-.16v-.34c0-.14.06-.21.2-.21H45.9a.45.45,0,0,0,.43-.18,1,1,0,0,0,.11-.5v-1.1h.71v.73a1.68,1.68,0,0,0,.05.4.84.84,0,0,0,.17.34.79.79,0,0,0,.31.22,1.19,1.19,0,0,0,.49.09h.17a.45.45,0,0,0,.43-.18,1,1,0,0,0,.1-.5V81.79h.71V82.9a1.77,1.77,0,0,0,.05.41,1,1,0,0,0,.17.34.87.87,0,0,0,.31.22,1.36,1.36,0,0,0,.49.08h.22q.36,0,.45-.18a1,1,0,0,0,.11-.5v-2h.69v1.62a1.86,1.86,0,0,0,0,.42.84.84,0,0,0,.17.34.79.79,0,0,0,.31.22,1.36,1.36,0,0,0,.49.08h.2c.14,0,.21,0,.21.16v.34a.19.19,0,0,1-.21.21h-.23a1.57,1.57,0,0,1-.67-.14A.9.9,0,0,1,52,84a1.29,1.29,0,0,1-.22.37.86.86,0,0,1-.26.21,1.32,1.32,0,0,1-.3.09h-.63a1.34,1.34,0,0,1-.66-.14A.91.91,0,0,1,49.5,84a1.12,1.12,0,0,1-.49.55,1.41,1.41,0,0,1-.62.13h-.25a1.51,1.51,0,0,1-.67-.14,1,1,0,0,1-.41-.54,1.49,1.49,0,0,1-.22.36.88.88,0,0,1-.59.3,2.06,2.06,0,0,1-.36,0Z"/><path d="M53.17,84.66c-.14,0-.21,0-.21-.16v-.34a.19.19,0,0,1,.21-.21h1.15V78.27H55v6.39Z"/><path d="M56.45,78.27h.69v6.39h-.69Z"/><path d="M60.36,84.66a2.33,2.33,0,0,1-.89-.15,1.64,1.64,0,0,1-.6-.39,1.47,1.47,0,0,1-.33-.55,1.87,1.87,0,0,1-.1-.62,2.28,2.28,0,0,1,.13-.78,2.08,2.08,0,0,1,.37-.65,1.87,1.87,0,0,1,.58-.43,1.6,1.6,0,0,1,.73-.16,1.78,1.78,0,0,1,.67.12,1.49,1.49,0,0,1,.52.35,1.63,1.63,0,0,1,.33.54,2.17,2.17,0,0,1,.11.69v2.08a2.29,2.29,0,0,1-.17.92,1.5,1.5,0,0,1-.47.63,1.89,1.89,0,0,1-.71.35,3.72,3.72,0,0,1-.91.11h-.37a3.29,3.29,0,0,1-.42,0L58.9,86l.4,0,.37,0a2.62,2.62,0,0,0,.57-.06,1.14,1.14,0,0,0,.48-.2,1.11,1.11,0,0,0,.34-.42,1.71,1.71,0,0,0,.13-.7Zm.82-.72v-1a1.59,1.59,0,0,0-.26-1,.88.88,0,0,0-.73-.35,1,1,0,0,0-.39.08,1.21,1.21,0,0,0-.35.24,1.18,1.18,0,0,0-.24.37,1.21,1.21,0,0,0-.09.48,1.44,1.44,0,0,0,.1.54,1,1,0,0,0,.27.36,1,1,0,0,0,.39.2,1.7,1.7,0,0,0,.46.06Z"/><path d="M69,84c.14,0,.21,0,.21.16v.34a.19.19,0,0,1-.21.21H66.75a2.42,2.42,0,0,1-.9-.15,1.64,1.64,0,0,1-.6-.39,1.47,1.47,0,0,1-.33-.55,1.87,1.87,0,0,1-.1-.62,2.29,2.29,0,0,1,.14-.78,2.1,2.1,0,0,1,.38-.65,1.72,1.72,0,0,1,.57-.43,1.66,1.66,0,0,1,.73-.16,1.83,1.83,0,0,1,.68.12,1.59,1.59,0,0,1,.52.35,1.61,1.61,0,0,1,.32.54,1.94,1.94,0,0,1,.12.7V84Zm-1.43,0v-1a1.59,1.59,0,0,0-.26-1,.85.85,0,0,0-.73-.35,1.1,1.1,0,0,0-.4.08,1.51,1.51,0,0,0-.34.24,1.31,1.31,0,0,0-.24.37,1.3,1.3,0,0,0-.09.49,1.43,1.43,0,0,0,.1.53,1.14,1.14,0,0,0,.27.37,1.07,1.07,0,0,0,.38.2,1.76,1.76,0,0,0,.46.06Zm-2-4.38a.41.41,0,0,1,.41-.41.38.38,0,0,1,.29.12.4.4,0,0,1,.12.29A.41.41,0,0,1,66,80a.4.4,0,0,1-.29-.12A.38.38,0,0,1,65.61,79.57Zm1.19,0a.41.41,0,1,1,.82,0,.38.38,0,0,1-.12.29.41.41,0,0,1-.58,0A.38.38,0,0,1,66.8,79.57Z"/><path d="M72,84a2.07,2.07,0,0,1-.39-.63,2.82,2.82,0,0,1-.18-.64c-.09-.69-.41-1-1-1a2.58,2.58,0,0,0-.43,0,2.07,2.07,0,0,0-.5.16c0-.14-.06-.25-.09-.35s-.06-.21-.09-.33L70,81a3,3,0,0,1,.72-.09,1.52,1.52,0,0,1,.62.12,1.12,1.12,0,0,1,.45.32,1.62,1.62,0,0,1,.28.5,3,3,0,0,1,.14.64c0,.13,0,.26,0,.39a2.36,2.36,0,0,0,.1.38,2,2,0,0,0,.18.36,1.1,1.1,0,0,0,.32.28v.76H68.87c-.14,0-.21,0-.21-.16v-.34a.19.19,0,0,1,.21-.21Z"/><path d="M74,78.27h.71V84h.69c.14,0,.21,0,.21.16v.34a.19.19,0,0,1-.21.21H74Z"/><path d="M75.25,84.66c-.14,0-.21,0-.21-.16v-.34a.19.19,0,0,1,.21-.21H76a.47.47,0,0,0,.43-.18,1,1,0,0,0,.11-.5v-2h.71v1.62a1.86,1.86,0,0,0,0,.42,1,1,0,0,0,.17.34.83.83,0,0,0,.32.22,1.34,1.34,0,0,0,.48.08h.2c.13,0,.2,0,.2.16v.34a.18.18,0,0,1-.2.21h-.23a1.34,1.34,0,0,1-.68-.16.86.86,0,0,1-.4-.52,1.62,1.62,0,0,1-.21.35,1,1,0,0,1-.26.21,1,1,0,0,1-.3.1l-.34,0Zm.69,1.44a.4.4,0,0,1,.12-.29.38.38,0,0,1,.29-.12.41.41,0,1,1,0,.82.38.38,0,0,1-.29-.12A.4.4,0,0,1,75.94,86.1Zm1.18,0a.41.41,0,1,1,.12.29A.4.4,0,0,1,77.12,86.1Z"/><path d="M78.35,84.66c-.13,0-.2,0-.2-.16v-.34a.18.18,0,0,1,.2-.21h1.47a.45.45,0,0,0,.43-.18,1,1,0,0,0,.11-.5v-1.1h.71v.73a1.68,1.68,0,0,0,.05.4.84.84,0,0,0,.17.34.79.79,0,0,0,.31.22,1.19,1.19,0,0,0,.49.09h.17a.45.45,0,0,0,.43-.18,1,1,0,0,0,.1-.5V81.79h.72V82.9a1.78,1.78,0,0,0,0,.41,1,1,0,0,0,.17.34.83.83,0,0,0,.32.22,1.3,1.3,0,0,0,.48.08h.22q.36,0,.45-.18a1,1,0,0,0,.11-.5v-2H86v1.62a1.86,1.86,0,0,0,.05.42.84.84,0,0,0,.17.34.79.79,0,0,0,.31.22A1.36,1.36,0,0,0,87,84h.2c.14,0,.21,0,.21.16v.34a.19.19,0,0,1-.21.21H87a1.57,1.57,0,0,1-.67-.14A.9.9,0,0,1,85.9,84a1.29,1.29,0,0,1-.22.37.86.86,0,0,1-.26.21,1.32,1.32,0,0,1-.3.09h-.63a1.34,1.34,0,0,1-.66-.14,1,1,0,0,1-.41-.54,1.12,1.12,0,0,1-.49.55,1.41,1.41,0,0,1-.62.13h-.24a1.52,1.52,0,0,1-.68-.14A1,1,0,0,1,81,84a1.49,1.49,0,0,1-.22.36.88.88,0,0,1-.59.3,2.06,2.06,0,0,1-.36,0Z"/><path d="M87.09,84.66c-.14,0-.21,0-.21-.16v-.34a.19.19,0,0,1,.21-.21h.77a.47.47,0,0,0,.43-.18,1,1,0,0,0,.11-.5v-5h.71V82.9a1.84,1.84,0,0,0,0,.41.84.84,0,0,0,.17.34.83.83,0,0,0,.32.22,1.34,1.34,0,0,0,.48.08h.19c.14,0,.21,0,.21.16v.34a.19.19,0,0,1-.21.21H90.1a1.32,1.32,0,0,1-.68-.16A.83.83,0,0,1,89,84a1.62,1.62,0,0,1-.21.35,1,1,0,0,1-.26.21,1.18,1.18,0,0,1-.3.1l-.34,0Z"/><path d="M90.19,84.66c-.14,0-.2,0-.2-.16v-.34c0-.14.06-.21.2-.21h1.15V78.27h.71v6.39Z"/></g></g></svg>