<svg xmlns="http://www.w3.org/2000/svg" viewBox="0 0 28.5 28.5"><g id="Layer_2" data-name="Layer 2"><g id="Layer_1-2" data-name="Layer 1"><path d="M14.25,0A14.25,14.25,0,1,0,28.5,14.25,14.25,14.25,0,0,0,14.25,0Zm8.43,21.49a4.5,4.5,0,0,1-3.93,2.19,8.5,8.5,0,0,1-4.26-1.22A20,20,0,0,1,6.35,13.9a6.82,6.82,0,0,1-.71-4.44,4.47,4.47,0,0,1,2.25-3,2.37,2.37,0,0,1,1.27-.07,1,1,0,0,1,1.09.91c.36,1.26.79,2.49,1.21,3.74a.45.45,0,0,1-.12.53c-.45.49-.88,1-1.33,1.49a.41.41,0,0,0-.07.56,13.2,13.2,0,0,0,5.77,5.73.33.33,0,0,0,.42-.06c.52-.48,1.06-.94,1.59-1.42a.4.4,0,0,1,.46-.1l4.26,1.39a.46.46,0,0,1,.32.37,6.12,6.12,0,0,1,.13,1.35A1.22,1.22,0,0,1,22.68,21.49Z" style="fill:#00a7e8"/></g></g></svg>