<svg xmlns="http://www.w3.org/2000/svg" viewBox="0 0 22.33 18.19"><g id="Layer_2" data-name="Layer 2"><g id="Layer_1-2" data-name="Layer 1"><path d="M13.61,11.11a20.6,20.6,0,0,0-4.15.28,9.49,9.49,0,0,0-3.73,1.68c-.19.14-.25.1-.33-.09L1.74,5a.34.34,0,0,1,.09-.46A9,9,0,0,1,7.92,2C9,2,10.11,2,11.2,2A12.45,12.45,0,0,0,18.09.06c.18-.11.24-.06.31.1q1.91,4.26,3.83,8.51c.07.17.07.27-.1.38A11.42,11.42,0,0,1,16.94,11C15.83,11.11,14.72,11.09,13.61,11.11Zm-.1-1.48h1.15a15.33,15.33,0,0,0,3.7-.42.32.32,0,0,0,.27-.29,4.91,4.91,0,0,1,1-2.21.27.27,0,0,0,0-.32c-.34-.77-.68-1.55-1-2.33a.3.3,0,0,0-.29-.2,4.63,4.63,0,0,1-2.37-1,.36.36,0,0,0-.37-.07,14.32,14.32,0,0,1-3.12.51c-1.29.08-2.58,0-3.87.06a11.53,11.53,0,0,0-3.25.49.34.34,0,0,0-.27.34,4.6,4.6,0,0,1-1,2.4.27.27,0,0,0,0,.34c.23.5.47,1,.68,1.49A.81.81,0,0,0,5.59,9a4.5,4.5,0,0,1,2.24,1.07.42.42,0,0,0,.44.08,9.77,9.77,0,0,1,1-.27A19.79,19.79,0,0,1,13.51,9.63Z" style="fill:#00a7e8"/><path d="M4.14,18.19c-.28-.62-.55-1.2-.81-1.79C2.24,14,1.16,11.59.06,9.2a.42.42,0,0,1,.1-.55c.28-.26.53-.54.8-.82s.28-.27.44.09l2.37,5.22c.3.66.61,1.32.89,2,.1.23.17.26.39.11A13.75,13.75,0,0,1,9.44,13a14,14,0,0,1,3.75-.48c1.09,0,2.18,0,3.28,0a12.78,12.78,0,0,0,5-1.2c.25-.11.36-.1.45.17s.26.64.4,1c.07.15.05.23-.1.32A11.55,11.55,0,0,1,18.45,14a23.23,23.23,0,0,1-3.12.19c-1.22,0-2.44,0-3.66.12A11.24,11.24,0,0,0,5.39,17C5,17.38,4.56,17.77,4.14,18.19Z" style="fill:#00a7e8"/><path d="M11.59,3.83a3.44,3.44,0,0,1,2.91,2,2,2,0,0,1-1.86,3A3.38,3.38,0,0,1,9.4,6.93C8.57,5.35,9.55,3.81,11.59,3.83Z" style="fill:#00a7e8"/></g></g></svg>