<svg xmlns="http://www.w3.org/2000/svg" viewBox="0 0 32.73 32.06"><g id="Layer_2" data-name="Layer 2"><g id="Layer_1-2" data-name="Layer 1"><path d="M29.71,25.61a15.84,15.84,0,0,1-10,6.45,24.74,24.74,0,0,0,4.63-6.13.57.57,0,0,1,.53-.32Z" style="fill:#00a7e8"/><path d="M22.55,25.61a19.18,19.18,0,0,1-5.33,6.13c0-2,.06-3.77,0-5.54,0-.43.17-.59.6-.59Z" style="fill:#00a7e8"/><path d="M15.5,26.14v5.55a18.1,18.1,0,0,1-5.32-6.08h4.89C15.45,25.61,15.5,25.82,15.5,26.14Z" style="fill:#00a7e8"/><path d="M13.14,32c-2.8.16-8.4-3.39-10-6.4H7.92c.32,0,.43.21.59.48A21.08,21.08,0,0,0,13.14,32Z" style="fill:#00a7e8"/><path d="M6.79,23.89H2.48a.79.79,0,0,1-.8-.49A17.9,17.9,0,0,1,0,17.59c0-.48.11-.64.54-.59H3.08A8.7,8.7,0,0,0,4.69,17c1.08-.17,1.45.26,1.51,1.34a15.55,15.55,0,0,0,1,4.95C7.43,23.78,7.33,23.89,6.79,23.89Z" style="fill:#00a7e8"/><path d="M15.5,17.64c-.05,1.83,0,3.66,0,5.55,0,.48-.11.7-.64.7-1.67-.06-3.34-.06-4.95,0a.74.74,0,0,1-.81-.54A18.78,18.78,0,0,1,7.81,17.7c0-.54.11-.75.65-.75,1.07.05,2.15.05,3.22.05s2.05,0,3.12-.05C15.29,17,15.5,17.05,15.5,17.64Z" style="fill:#00a7e8"/><path d="M24.92,17.64a19.12,19.12,0,0,1-1.3,5.76.68.68,0,0,1-.75.49c-1.66,0-3.33-.06-5,0-.54,0-.65-.22-.65-.65.06-1,0-1.88,0-2.85s.06-1.78,0-2.69c0-.49.11-.75.7-.75,2.1.05,4.25.05,6.41,0C24.81,17,25,17.16,24.92,17.64Z" style="fill:#00a7e8"/><path d="M32.66,17.75A17.38,17.38,0,0,1,31.27,23c-.28.65-.65,1-1.4.92s-1.19,0-1.83,0v-.06c-.86,0-2.1.32-2.48-.11s.33-1.56.49-2.36a23.24,23.24,0,0,0,.59-3.66c0-.54.21-.75.81-.75,1.5.05,3,.05,4.51,0C32.56,17,32.77,17.11,32.66,17.75Z" style="fill:#00a7e8"/><path d="M32.72,14.58c.05.48-.11.64-.6.64H27.28c-.37,0-.59-.1-.64-.53a22.14,22.14,0,0,0-1.35-6.35H30.4c.43,0,.54.27.7.59A18.54,18.54,0,0,1,32.72,14.58Z" style="fill:#00a7e8"/><path d="M24.92,14.42c0,.59-.06.86-.76.8-1-.05-2,0-3.06,0H18c-.54,0-.76-.1-.76-.64.06-1.88.06-3.77,0-5.65,0-.48.22-.59.65-.59h4.95c.43,0,.7.11.8.54A19.28,19.28,0,0,1,24.92,14.42Z" style="fill:#00a7e8"/><path d="M15.5,9c-.05,1.83-.05,3.6,0,5.43,0,.7-.27.81-.8.75H8.62c-.6.06-.86-.1-.81-.8A19.21,19.21,0,0,1,9.1,8.88a.72.72,0,0,1,.81-.54h4.84C15.29,8.28,15.5,8.45,15.5,9Z" style="fill:#00a7e8"/><path d="M7.43,8.34A27.72,27.72,0,0,0,6,14.74c0,.38-.16.48-.48.48h-5C.06,15.22,0,15,0,14.58A18,18,0,0,1,1.68,8.82a.71.71,0,0,1,.75-.48Z" style="fill:#00a7e8"/><path d="M13.24,0,11.09,2.31A18.69,18.69,0,0,0,8.56,6c-.16.38-.32.65-.86.65H3A16.69,16.69,0,0,1,13.24,0Z" style="fill:#00a7e8"/><path d="M15.29,6.46c-.54.43-1.62.16-2.42.16H10.18A18.88,18.88,0,0,1,15.5.48V4C15.45,4.84,15.88,6,15.29,6.46Z" style="fill:#00a7e8"/><path d="M22.6,6.62H17.76c-.37,0-.54-.11-.54-.54V.48A20.34,20.34,0,0,1,22.6,6.62Z" style="fill:#00a7e8"/><path d="M29.71,6.56h-5c-.21,0-.27-.1-.37-.27A22.77,22.77,0,0,0,19.7.16,16.05,16.05,0,0,1,29.71,6.56Z" style="fill:#00a7e8"/></g></g></svg>